<svg width="299" height="333" viewBox="0 0 299 333" fill="none" xmlns="http://www.w3.org/2000/svg">
<g clip-path="url(#clip0_96_120)">
<path d="M187.402 152.875C190.873 154.61 193.848 157.231 196.008 160.49C197.248 162.331 197.248 164.704 196.008 166.546C193.848 169.769 190.873 172.39 187.402 174.125" stroke="#00A43E" stroke-width="6" stroke-linecap="round" stroke-linejoin="round"/>
<path d="M170.083 167.183V174.125C170.083 191.833 177.167 198.917 194.875 198.917H216.125C233.833 198.917 240.917 191.833 240.917 174.125V152.875C240.917 135.167 233.833 128.083 216.125 128.083H194.875C177.167 128.083 170.083 135.167 170.083 152.875" stroke="#00A43E" stroke-width="6" stroke-linecap="round" stroke-linejoin="round"/>
<path d="M209.042 174.125H223.208" stroke="#00A43E" stroke-width="6" stroke-linecap="round" stroke-linejoin="round"/>
<path d="M153.4 107H172.6C188.6 107 195 100.6 195 84.6V65.4C195 49.4 188.6 43 172.6 43H153.4C137.4 43 131 49.4 131 65.4V84.6C131 100.6 137.4 107 153.4 107Z" stroke="#9B8900" stroke-width="5" stroke-linecap="round" stroke-linejoin="round"/>
<path d="M143 69V81C143 91 147 95 157 95H169C179 95 183 91 183 81V69C183 59 179 55 169 55H157" stroke="#9B8900" stroke-width="5" stroke-linecap="round" stroke-linejoin="round"/>
<path d="M147.04 43V35" stroke="#9B8900" stroke-width="5" stroke-linecap="round" stroke-linejoin="round"/>
<path d="M163 43V35" stroke="#9B8900" stroke-width="5" stroke-linecap="round" stroke-linejoin="round"/>
<path d="M179 43V35" stroke="#9B8900" stroke-width="5" stroke-linecap="round" stroke-linejoin="round"/>
<path d="M195 59H203" stroke="#9B8900" stroke-width="5" stroke-linecap="round" stroke-linejoin="round"/>
<path d="M195 75H203" stroke="#9B8900" stroke-width="5" stroke-linecap="round" stroke-linejoin="round"/>
<path d="M195 91H203" stroke="#9B8900" stroke-width="5" stroke-linecap="round" stroke-linejoin="round"/>
<path d="M179 107V115" stroke="#9B8900" stroke-width="5" stroke-linecap="round" stroke-linejoin="round"/>
<path d="M163.04 107V115" stroke="#9B8900" stroke-width="5" stroke-linecap="round" stroke-linejoin="round"/>
<path d="M147.04 107V115" stroke="#9B8900" stroke-width="5" stroke-linecap="round" stroke-linejoin="round"/>
<path d="M123 59H131" stroke="#9B8900" stroke-width="5" stroke-linecap="round" stroke-linejoin="round"/>
<path d="M123 75H131" stroke="#9B8900" stroke-width="5" stroke-linecap="round" stroke-linejoin="round"/>
<path d="M123 91H131" stroke="#9B8900" stroke-width="5" stroke-linecap="round" stroke-linejoin="round"/>
<path d="M138.208 128.083C148.833 128.083 155.917 135.167 155.917 145.792V152.875" stroke="#005AA5" stroke-width="5" stroke-miterlimit="10" stroke-linecap="round" stroke-linejoin="round"/>
<path d="M85.0833 152.875V145.792C85.0833 135.167 92.1666 128.083 102.792 128.083H123.227" stroke="#005AA5" stroke-width="5" stroke-miterlimit="10" stroke-linecap="round" stroke-linejoin="round"/>
<path d="M155.917 174.125V181.208C155.917 191.833 148.833 198.917 138.208 198.917H118.623" stroke="#005AA5" stroke-width="5" stroke-miterlimit="10" stroke-linecap="round" stroke-linejoin="round"/>
<path d="M85.0833 174.125V181.208C85.0833 191.833 92.1666 198.917 102.792 198.917" stroke="#005AA5" stroke-width="5" stroke-miterlimit="10" stroke-linecap="round" stroke-linejoin="round"/>
<path d="M101.729 153.796L120.5 164.669L139.129 153.867" stroke="#005AA5" stroke-width="5" stroke-linecap="round" stroke-linejoin="round"/>
<path d="M120.5 183.936V164.633" stroke="#005AA5" stroke-width="5" stroke-linecap="round" stroke-linejoin="round"/>
<path d="M116.108 143.277L104.775 149.581C102.225 150.998 100.1 154.575 100.1 157.515V169.521C100.1 172.46 102.19 176.038 104.775 177.454L116.108 183.758C118.517 185.104 122.483 185.104 124.927 183.758L136.26 177.454C138.81 176.038 140.936 172.46 140.936 169.521V157.515C140.936 154.575 138.846 150.998 136.26 149.581L124.927 143.277C122.483 141.896 118.517 141.896 116.108 143.277Z" stroke="#005AA5" stroke-width="5" stroke-linecap="round" stroke-linejoin="round"/>
<path d="M0 212.02C27.7735 210.919 43.2911 209.6 46.5529 208.061C49.8157 206.522 49.8157 234.19 46.5529 291.068C22.0557 296.357 6.53784 299 0 299" stroke="url(#paint0_linear_96_120)" stroke-width="8" stroke-linecap="round" stroke-linejoin="round"/>
<path d="M49 222.439H74.4508C87.9519 217.772 101.528 216.108 115.179 217.449C135.654 219.459 138.152 237.744 144.838 238.775C151.524 239.804 183 243.581 183 253.29C183 263 147.32 263 122.076 263" stroke="url(#paint1_linear_96_120)" stroke-width="8" stroke-linecap="round" stroke-linejoin="round"/>
<path d="M164.723 236.623C157.963 233.598 154.713 232.057 154.972 231.999C191.961 223.723 217.985 223.723 220.863 233.793C222.267 238.704 210.567 241.906 185.764 243.398C224.795 238.763 244.952 238.017 246.233 241.16C248.156 245.873 218.648 256.495 206.477 257.35C194.308 258.206 255.606 246.65 258.874 258.794C262.143 270.939 200.984 283.533 167.25 285.736C133.515 287.94 85.091 275.541 58 277.624" stroke="url(#paint2_linear_96_120)" stroke-width="8" stroke-linecap="round" stroke-linejoin="round"/>
</g>
<defs>
<linearGradient id="paint0_linear_96_120" x1="24.5" y1="208" x2="24.5" y2="299" gradientUnits="userSpaceOnUse">
<stop stop-color="#54A6B7"/>
<stop offset="1" stop-color="#38606C"/>
</linearGradient>
<linearGradient id="paint1_linear_96_120" x1="116" y1="217" x2="116" y2="263" gradientUnits="userSpaceOnUse">
<stop stop-color="#54A6B7"/>
<stop offset="1" stop-color="#38606C"/>
</linearGradient>
<linearGradient id="paint2_linear_96_120" x1="158.5" y1="226" x2="158.5" y2="286" gradientUnits="userSpaceOnUse">
<stop stop-color="#54A6B7"/>
<stop offset="1" stop-color="#38606C"/>
</linearGradient>
<clipPath id="clip0_96_120">
<rect width="299" height="333" fill="white"/>
</clipPath>
</defs>
</svg>
