<svg width="35" height="35" viewBox="0 0 35 35" fill="none" xmlns="http://www.w3.org/2000/svg">
<path id="Vector" d="M11.7067 28.0492C11.7067 28.1932 11.5444 28.3085 11.3397 28.3085C11.1069 28.3301 10.9446 28.2148 10.9446 28.0492C10.9446 27.9051 11.1069 27.7899 11.3115 27.7899C11.5232 27.7682 11.7067 27.8835 11.7067 28.0492ZM9.5121 27.725C9.4627 27.8691 9.60383 28.0348 9.81553 28.078C9.99899 28.15 10.2107 28.078 10.253 27.9339C10.2954 27.7899 10.1613 27.6242 9.9496 27.5594C9.76613 27.5089 9.56149 27.581 9.5121 27.725ZM12.631 27.6026C12.4264 27.653 12.2853 27.7899 12.3065 27.9555C12.3276 28.0996 12.5111 28.1932 12.7228 28.1428C12.9274 28.0924 13.0685 27.9555 13.0474 27.8115C13.0262 27.6746 12.8357 27.581 12.631 27.6026ZM17.2742 0C7.4869 0 0 7.58495 0 17.5758C0 25.5641 4.9254 32.3999 11.9607 34.8058C12.8639 34.9714 13.1815 34.4024 13.1815 33.9342C13.1815 33.4876 13.1603 31.0241 13.1603 29.5114C13.1603 29.5114 8.22077 30.5919 7.18347 27.3649C7.18347 27.3649 6.37903 25.2687 5.22177 24.7285C5.22177 24.7285 3.60585 23.5976 5.33468 23.6192C5.33468 23.6192 7.09173 23.7633 8.05847 25.4776C9.60383 28.2581 12.1935 27.4585 13.2026 26.9831C13.3649 25.8306 13.8236 25.031 14.3317 24.5556C10.3871 24.109 6.40726 23.5256 6.40726 16.5961C6.40726 14.6152 6.94355 13.6212 8.07258 12.3534C7.88911 11.8852 7.28931 9.95479 8.25605 7.46249C9.73085 6.99428 13.125 9.40735 13.125 9.40735C14.5363 9.00397 16.0534 8.79508 17.5565 8.79508C19.0595 8.79508 20.5766 9.00397 21.9879 9.40735C21.9879 9.40735 25.3821 6.98708 26.8569 7.46249C27.8236 9.96199 27.2238 11.8852 27.0403 12.3534C28.1694 13.6284 28.8609 14.6224 28.8609 16.5961C28.8609 23.5472 24.7046 24.1018 20.7601 24.5556C21.4093 25.1247 21.9597 26.2052 21.9597 27.8979C21.9597 30.3254 21.9385 33.3291 21.9385 33.9198C21.9385 34.388 22.2631 34.957 23.1593 34.7913C30.2157 32.3999 35 25.5641 35 17.5758C35 7.58495 27.0615 0 17.2742 0ZM6.85887 24.8438C6.76714 24.9158 6.78831 25.0815 6.90827 25.2183C7.02117 25.3336 7.18347 25.384 7.2752 25.2904C7.36694 25.2183 7.34577 25.0526 7.22581 24.9158C7.1129 24.8005 6.9506 24.7501 6.85887 24.8438ZM6.09677 24.2603C6.04738 24.3539 6.11794 24.4692 6.25907 24.5412C6.37198 24.6133 6.5131 24.5916 6.5625 24.4908C6.6119 24.3972 6.54133 24.2819 6.4002 24.2099C6.25907 24.1667 6.14617 24.1883 6.09677 24.2603ZM8.38306 26.8246C8.27016 26.9183 8.3125 27.1344 8.4748 27.2712C8.6371 27.4369 8.84173 27.4585 8.93347 27.3433C9.0252 27.2496 8.98286 27.0335 8.84173 26.8967C8.68649 26.731 8.4748 26.7094 8.38306 26.8246ZM7.57863 25.7658C7.46573 25.8378 7.46573 26.0251 7.57863 26.1908C7.69153 26.3564 7.88206 26.4285 7.97379 26.3564C8.08669 26.2628 8.08669 26.0755 7.97379 25.9098C7.875 25.7442 7.69153 25.6721 7.57863 25.7658Z" fill="url(#paint0_linear_1_888)"/>
<defs>
<linearGradient id="paint0_linear_1_888" x1="17.5" y1="0" x2="17.5" y2="34.8351" gradientUnits="userSpaceOnUse">
<stop stop-color="#54A6B7"/>
<stop offset="1" stop-color="#38606C"/>
</linearGradient>
</defs>
</svg>
