<svg width="31" height="31" viewBox="0 0 31 31" fill="none" xmlns="http://www.w3.org/2000/svg">
<path id="Vector" d="M15.5035 7.51641C11.105 7.51641 7.55722 11.0483 7.55722 15.427C7.55722 19.8057 11.105 23.3375 15.5035 23.3375C19.9019 23.3375 23.4497 19.8057 23.4497 15.427C23.4497 11.0483 19.9019 7.51641 15.5035 7.51641ZM15.5035 20.5699C12.6611 20.5699 10.3374 18.2635 10.3374 15.427C10.3374 12.5905 12.6542 10.2841 15.5035 10.2841C18.3528 10.2841 20.6695 12.5905 20.6695 15.427C20.6695 18.2635 18.3458 20.5699 15.5035 20.5699ZM25.6282 7.19283C25.6282 8.21865 24.7983 9.03794 23.7747 9.03794C22.7443 9.03794 21.9213 8.21177 21.9213 7.19283C21.9213 6.17389 22.7512 5.34772 23.7747 5.34772C24.7983 5.34772 25.6282 6.17389 25.6282 7.19283ZM30.8911 9.06548C30.7735 6.59386 30.2064 4.40451 28.3876 2.60071C26.5756 0.796908 24.3764 0.23236 21.8936 0.108435C19.3348 -0.0361449 11.6652 -0.0361449 9.10636 0.108435C6.63051 0.225475 4.43129 0.790023 2.61244 2.59382C0.793586 4.39763 0.233408 6.58697 0.108924 9.05859C-0.0363079 11.6059 -0.0363079 19.2411 0.108924 21.7885C0.226492 24.2601 0.793586 26.4494 2.61244 28.2532C4.43129 30.057 6.62359 30.6216 9.10636 30.7455C11.6652 30.8901 19.3348 30.8901 21.8936 30.7455C24.3764 30.6285 26.5756 30.0639 28.3876 28.2532C30.1995 26.4494 30.7666 24.2601 30.8911 21.7885C31.0363 19.2411 31.0363 11.6128 30.8911 9.06548ZM27.5853 24.5217C27.0459 25.8711 26.0016 26.9107 24.6392 27.4546C22.5991 28.2601 17.758 28.0742 15.5035 28.0742C13.2489 28.0742 8.40095 28.2532 6.36771 27.4546C5.01221 26.9176 3.96793 25.878 3.42158 24.5217C2.61244 22.4907 2.79916 17.6714 2.79916 15.427C2.79916 13.1825 2.61935 8.35635 3.42158 6.33224C3.96101 4.98283 5.0053 3.94323 6.36771 3.39934C8.40786 2.59382 13.2489 2.77971 15.5035 2.77971C17.758 2.77971 22.606 2.60071 24.6392 3.39934C25.9947 3.93635 27.039 4.97594 27.5853 6.33224C28.3945 8.36323 28.2078 13.1825 28.2078 15.427C28.2078 17.6714 28.3945 22.4976 27.5853 24.5217Z" fill="url(#paint0_linear_1_890)"/>
<defs>
<linearGradient id="paint0_linear_1_890" x1="15.5" y1="0" x2="15.5" y2="30.8539" gradientUnits="userSpaceOnUse">
<stop stop-color="#54A6B7"/>
<stop offset="1" stop-color="#38606C"/>
</linearGradient>
</defs>
</svg>
