<svg width="36" height="25" viewBox="0 0 36 25" fill="none" xmlns="http://www.w3.org/2000/svg">
<path d="M35.242 3.91276C34.8334 2.36979 33.6075 1.15885 32.0586 0.748698C29.2574 0 18 0 18 0C18 0 6.74258 0 3.93482 0.748698C2.38594 1.15885 1.16661 2.36979 0.751373 3.91276C1.25713e-07 6.70573 0 12.526 0 12.526C0 12.526 1.25713e-07 18.3464 0.751373 21.1393C1.16661 22.6758 2.38594 23.8411 3.93482 24.2513C6.74258 25 18 25 18 25C18 25 29.2574 25 32.0652 24.2513C33.6141 23.8411 34.8334 22.6758 35.2486 21.1393C36 18.3464 36 12.526 36 12.526C36 12.526 36 6.70573 35.2486 3.91276H35.242ZM14.3156 17.8125V7.23958L23.721 12.526L14.3156 17.8125Z" fill="url(#paint0_linear_164_69)"/>
<defs>
<linearGradient id="paint0_linear_164_69" x1="18" y1="0" x2="18" y2="25" gradientUnits="userSpaceOnUse">
<stop stop-color="#54A6B7"/>
<stop offset="1" stop-color="#38606C"/>
</linearGradient>
</defs>
</svg>
