<svg width="45" height="45" viewBox="0 0 45 45" fill="none" xmlns="http://www.w3.org/2000/svg">
<g id="Frame">
<path id="Vector" d="M6.69268 40.0345L3.17529 0.583954H41.8247L38.3034 40.0286L22.4764 44.4161L6.69268 40.0345Z" fill="#E44D26"/>
<path id="Vector_2" d="M22.5 41.0625L35.2891 37.5166L38.2982 3.80954H22.5V41.0625Z" fill="#F16529"/>
<path id="Vector_3" d="M22.5 18.4412H16.0974L15.6551 13.4863H22.5V8.64807H10.3672L10.4833 9.94604L11.6722 23.2798H22.5V18.4412ZM22.5 31.0071L22.4786 31.0131L17.0902 29.5576L16.746 25.6992H11.8885L12.5663 33.2961L22.4779 36.0474L22.5 36.0415V31.0071Z" fill="#EBEBEB"/>
<path id="Vector_4" d="M22.4832 18.4412V23.2798H28.4411L27.8796 29.5548L22.4832 31.0113V36.0453L32.4025 33.2961L32.4753 32.4787L33.6122 19.7406L33.73 18.4412H32.4264H22.4832ZM22.4832 8.64807V13.4863H34.1705L34.2675 12.3992L34.4883 9.94604L34.604 8.64807H22.4832Z" fill="white"/>
</g>
</svg>
