<svg width="24" height="24" viewBox="0 0 24 24" fill="none" xmlns="http://www.w3.org/2000/svg">
<g id="designtools">
<path id="Vector" d="M18 3.01999C18.68 2.65999 19.34 2.34999 19.96 2.09999C20.55 1.87999 21.12 2.03999 21.48 2.40999C21.86 2.78999 22.04 3.35999 21.8 3.94999C20.26 7.78999 16.4 13.01 13.17 15.6L11.2 17.18C10.95 17.36 10.7 17.52 10.42 17.63C10.42 17.45 10.41 17.25 10.38 17.06C10.27 16.22 9.88999 15.44 9.21999 14.77C8.53999 14.09 7.70999 13.69 6.85999 13.58C6.65999 13.57 6.45999 13.55 6.25999 13.57C6.36999 13.26 6.53999 12.97 6.74999 12.73L8.30999 10.76C9.75999 8.94999 12.04 6.93999 14.43 5.24999" stroke="black" stroke-width="1.5" stroke-linecap="round" stroke-linejoin="round"/>
<path id="Vector_2" d="M10.43 17.6201C10.43 18.7201 10.01 19.77 9.22 20.57C8.61 21.18 7.78 21.6001 6.79 21.7301L4.33 22.0001C2.99 22.1501 1.84 21.01 2 19.65L2.27 17.1901C2.51 15.0001 4.34 13.6001 6.28 13.5601C6.48 13.5501 6.69 13.56 6.88 13.57C7.73 13.68 8.56 14.0701 9.24 14.7601C9.91 15.4301 10.29 16.21 10.4 17.05C10.41 17.24 10.43 17.4301 10.43 17.6201Z" stroke="black" stroke-width="1.5" stroke-linecap="round" stroke-linejoin="round"/>
<path id="Vector_3" d="M14.24 14.47C14.24 11.86 12.12 9.73999 9.50999 9.73999" stroke="black" stroke-width="1.5" stroke-linecap="round" stroke-linejoin="round"/>
<path id="Vector_4" d="M20.12 12.73L20.86 13.46C22.35 14.95 22.35 16.42 20.86 17.91L17.9 20.87C16.43 22.34 14.94 22.34 13.47 20.87" stroke="black" stroke-width="1.5" stroke-linecap="round"/>
<path id="Vector_5" d="M3.11001 10.5101C1.64001 9.02006 1.64001 7.55006 3.11001 6.06006L6.07001 3.10006C7.54001 1.63006 9.03001 1.63006 10.5 3.10006L11.24 3.84006" stroke="black" stroke-width="1.5" stroke-linecap="round"/>
<path id="Vector_6" d="M11.25 3.84998L7.55 7.54998" stroke="black" stroke-width="1.5" stroke-linecap="round"/>
<path id="Vector_7" d="M20.12 12.73L17.16 15.68" stroke="black" stroke-width="1.5" stroke-linecap="round"/>
</g>
</svg>
