<svg width="20" height="20" viewBox="0 0 20 20" fill="none" xmlns="http://www.w3.org/2000/svg">
<g id="vuesax/broken/sun">
<g id="sun">
<path id="Vector" d="M5.83337 6.54167C5.05004 7.48334 4.58337 8.68334 4.58337 10C4.58337 12.9917 7.00837 15.4167 10 15.4167C12.9917 15.4167 15.4167 12.9917 15.4167 10C15.4167 7.00834 12.9917 4.58334 10 4.58334" stroke="white" stroke-width="1.5" stroke-linecap="round" stroke-linejoin="round"/>
<path id="Vector_2" d="M15.95 15.95L15.8416 15.8417M15.8416 4.15833L15.95 4.05L15.8416 4.15833ZM4.04996 15.95L4.15829 15.8417L4.04996 15.95ZM9.99996 1.73333V1.66666V1.73333ZM9.99996 18.3333V18.2667V18.3333ZM1.73329 10H1.66663H1.73329ZM18.3333 10H18.2666H18.3333ZM4.15829 4.15833L4.04996 4.05L4.15829 4.15833Z" stroke="white" stroke-width="1.5" stroke-linecap="round" stroke-linejoin="round"/>
</g>
</g>
</svg>
