<svg width="85" height="85" viewBox="0 0 85 85" fill="none" xmlns="http://www.w3.org/2000/svg">
<g id="3d-cube-scan">
<g id="vuesax/broken/3d-cube-scan">
<g id="3d-cube-scan_2">
<path id="Vector" d="M60.2084 7.08337C70.8334 7.08337 77.9167 14.1667 77.9167 24.7917V31.875" stroke="#003C6D" stroke-width="5" stroke-miterlimit="10" stroke-linecap="round" stroke-linejoin="round"/>
<path id="Vector_2" d="M7.08331 31.875V24.7917C7.08331 14.1667 14.1666 7.08337 24.7916 7.08337H45.2271" stroke="#003C6D" stroke-width="5" stroke-miterlimit="10" stroke-linecap="round" stroke-linejoin="round"/>
<path id="Vector_3" d="M77.9167 53.125V60.2083C77.9167 70.8333 70.8333 77.9167 60.2083 77.9167H40.6229" stroke="#003C6D" stroke-width="5" stroke-miterlimit="10" stroke-linecap="round" stroke-linejoin="round"/>
<path id="Vector_4" d="M7.08331 53.125V60.2083C7.08331 70.8333 14.1666 77.9167 24.7916 77.9167" stroke="#003C6D" stroke-width="5" stroke-miterlimit="10" stroke-linecap="round" stroke-linejoin="round"/>
<g id="Group">
<path id="Vector_5" d="M23.7291 32.7959L42.5 43.6688L61.1291 32.8668" stroke="#003C6D" stroke-width="5" stroke-linecap="round" stroke-linejoin="round"/>
<path id="Vector_6" d="M42.5 62.9356V43.6334" stroke="#003C6D" stroke-width="5" stroke-linecap="round" stroke-linejoin="round"/>
</g>
<path id="Vector_7" d="M38.1083 22.277L26.775 28.5813C24.225 29.998 22.1 33.575 22.1 36.5146V48.5209C22.1 51.4605 24.1896 55.0375 26.775 56.4542L38.1083 62.7582C40.5167 64.1041 44.4833 64.1041 46.9271 62.7582L58.2604 56.4542C60.8104 55.0375 62.9354 51.4605 62.9354 48.5209V36.5146C62.9354 33.575 60.8458 29.998 58.2604 28.5813L46.9271 22.277C44.4833 20.8958 40.5167 20.8958 38.1083 22.277Z" stroke="#003C6D" stroke-width="5" stroke-linecap="round" stroke-linejoin="round"/>
</g>
</g>
</g>
</svg>
