<svg width="85" height="85" viewBox="0 0 85 85" fill="none" xmlns="http://www.w3.org/2000/svg">
<g id="cpu">
<g id="vuesax/broken/cpu">
<g id="cpu_2">
<path id="Vector" d="M34 70.8333H51C65.1667 70.8333 70.8334 65.1666 70.8334 51V34C70.8334 19.8333 65.1667 14.1666 51 14.1666H34C19.8334 14.1666 14.1667 19.8333 14.1667 34V51C14.1667 65.1666 19.8334 70.8333 34 70.8333Z" stroke="#686D00" stroke-width="5" stroke-linecap="round" stroke-linejoin="round"/>
<path id="Vector_2" d="M24.7917 37.1875V47.8125C24.7917 56.6666 28.3334 60.2083 37.1875 60.2083H47.8125C56.6667 60.2083 60.2084 56.6666 60.2084 47.8125V37.1875C60.2084 28.3333 56.6667 24.7916 47.8125 24.7916H37.1875" stroke="#686D00" stroke-width="5" stroke-linecap="round" stroke-linejoin="round"/>
<path id="Vector_3" d="M28.3688 14.1667V7.08337" stroke="#686D00" stroke-width="5" stroke-linecap="round" stroke-linejoin="round"/>
<path id="Vector_4" d="M42.5 14.1667V7.08337" stroke="#686D00" stroke-width="5" stroke-linecap="round" stroke-linejoin="round"/>
<path id="Vector_5" d="M56.6667 14.1667V7.08337" stroke="#686D00" stroke-width="5" stroke-linecap="round" stroke-linejoin="round"/>
<path id="Vector_6" d="M70.8333 28.3334H77.9166" stroke="#686D00" stroke-width="5" stroke-linecap="round" stroke-linejoin="round"/>
<path id="Vector_7" d="M70.8333 42.5H77.9166" stroke="#686D00" stroke-width="5" stroke-linecap="round" stroke-linejoin="round"/>
<path id="Vector_8" d="M70.8333 56.6666H77.9166" stroke="#686D00" stroke-width="5" stroke-linecap="round" stroke-linejoin="round"/>
<path id="Vector_9" d="M56.6667 70.8334V77.9167" stroke="#686D00" stroke-width="5" stroke-linecap="round" stroke-linejoin="round"/>
<path id="Vector_10" d="M42.5354 70.8334V77.9167" stroke="#686D00" stroke-width="5" stroke-linecap="round" stroke-linejoin="round"/>
<path id="Vector_11" d="M28.3688 70.8334V77.9167" stroke="#686D00" stroke-width="5" stroke-linecap="round" stroke-linejoin="round"/>
<path id="Vector_12" d="M7.08331 28.3334H14.1666" stroke="#686D00" stroke-width="5" stroke-linecap="round" stroke-linejoin="round"/>
<path id="Vector_13" d="M7.08331 42.5H14.1666" stroke="#686D00" stroke-width="5" stroke-linecap="round" stroke-linejoin="round"/>
<path id="Vector_14" d="M7.08331 56.6666H14.1666" stroke="#686D00" stroke-width="5" stroke-linecap="round" stroke-linejoin="round"/>
</g>
</g>
</g>
</svg>
